<?xml version="1.0" encoding="UTF-8" standalone="no"?>
<svg version="1.1" id="svg--logo-archriss" viewBox="-573.1 729.9 96 96"
   xml:space="preserve" width="96" height="96" xmlns="http://www.w3.org/2000/svg" xmlns:svg="http://www.w3.org/2000/svg">
<style type="text/css">
	.arc-bg{fill:#ec001b;}
	.arc-logo{fill:#ffffff;}
</style>
    <rect class="arc-bg" width="100%" height="100%" x="-573.09998" y="729.90002" />
    <g class="arc-logo" transform="translate(17.185199,16.632492)">
        <path d="m -541.9,782.2 c -0.8,-2.7 -3.9,-3.8 -8.2,-4.7 -1.9,-0.4 -4.1,-0.9 -6.4,-1.7 -2.1,-0.8 -4.3,-1.9
            -6.2,-3.7 -1.8,-1.6 -3.4,-3.8 -4.4,-6.3 -0.9,-2.3 -1.4,-5 -1.2,-7.9 0.2,-2.7 1,-5.6 2.2,-8.4 1.2,-2.6 3,-5.1
            5.1,-7.2 2.1,-2.1 4.7,-3.9 7.2,-5.1 2.8,-1.3 5.6,-2.1 8.3,-2.2 2.9,-0.2 5.5,0.3 7.9,1.2 2.6,1 4.8,2.6 6.3,4.4
            1.7,1.9 2.9,4.1 3.7,6.2 0.8,2.3 1.3,4.5 1.7,6.4 0.9,4.3 2,7.2 4.7,8.2 3.3,1 8.2,-0.9 10,-7 0.8,-3 0.6,-6.6
            -1,-10.4 -1.5,-3.4 -4.2,-6.5 -8,-9.1 -3.2,-2.3 -7.2,-3.9 -11.6,-4.5 -3.8,-0.6 -7.8,-0.6 -11.7,0.2 -3.5,0.7
            -7,2 -10.3,3.8 -3.1,1.6 -6,3.8 -8.6,6.3 -2.6,2.6 -4.7,5.5 -6.3,8.6 -1.7,3.3 -3.1,6.8 -3.8,10.3 -0.8,4 -0.8,8
            -0.2,11.7 0.7,4.4 2.2,8.5 4.4,11.8 2.6,3.9 5.7,6.4 9.1,8 3.8,1.7 7.5,1.9 10.4,1 6,-1.7 8,-6.7 6.9,-9.9 z" />
        <path d="m -543,741 c 2.8,1.5 4.5,4.3 4.7,7.7 0.2,3.7 -1.3,8 -4.7,11.3 -3.4,3.4 -7.6,4.9 -11.3,4.7 -3.4,-0.2
            -6.1,-1.8 -7.7,-4.7 -1.3,-2.4 -1.5,-5.4 -0.8,-8.2 0.7,-2.6 2.1,-5.2 4.3,-7.3 2.1,-2.1 4.7,-3.6 7.4,-4.3
            2.7,-0.7 5.6,-0.5 8.1,0.8 z" />
    </g>
</svg>
